<?xml version="1.0" encoding="utf-8"?>
<!-- Generator: Adobe Illustrator 16.0.3, SVG Export Plug-In . SVG Version: 6.00 Build 0)  -->
<!DOCTYPE svg PUBLIC "-//W3C//DTD SVG 1.1//EN" "http://www.w3.org/Graphics/SVG/1.1/DTD/svg11.dtd">
<svg version="1.1" id="Layer_1" xmlns="http://www.w3.org/2000/svg" xmlns:xlink="http://www.w3.org/1999/xlink" x="0px" y="0px"
	 width="51px" height="51px" viewBox="-0.5 -0.5 51 51" enable-background="new -0.5 -0.5 51 51" xml:space="preserve">
<g>
	<g>
		<g>
			<defs>
				<path id="SVGID_1_" d="M49.418,20.349H25.581v9.883h13.721c-1.277,6.277-6.628,9.883-13.721,9.883
					c-8.372,0-15.116-6.744-15.116-15.116c0-8.372,6.744-15.116,15.116-15.116c3.604,0,6.86,1.279,9.419,3.372l7.441-7.441
					c-4.534-3.953-10.35-6.396-16.86-6.396C11.395-0.582,0,10.814,0,25c0,14.188,11.395,25.583,25.581,25.583
					C38.372,50.582,50,41.279,50,25C50,23.489,49.768,21.861,49.418,20.349z"/>
			</defs>
			<clipPath id="SVGID_2_">
				<use xlink:href="#SVGID_1_"  overflow="visible"/>
			</clipPath>
			<path clip-path="url(#SVGID_2_)" fill="#FBBC05" d="M-2.326,40.115V9.883L17.441,25L-2.326,40.115z"/>
		</g>
	</g>
	<g>
		<g>
			<defs>
				<path id="SVGID_3_" d="M49.418,20.349H25.581v9.883h13.721c-1.277,6.277-6.628,9.883-13.721,9.883
					c-8.372,0-15.116-6.744-15.116-15.116c0-8.372,6.744-15.116,15.116-15.116c3.604,0,6.86,1.279,9.419,3.372l7.441-7.441
					c-4.534-3.953-10.35-6.396-16.86-6.396C11.395-0.582,0,10.814,0,25c0,14.188,11.395,25.583,25.581,25.583
					C38.372,50.582,50,41.279,50,25C50,23.489,49.768,21.861,49.418,20.349z"/>
			</defs>
			<clipPath id="SVGID_4_">
				<use xlink:href="#SVGID_3_"  overflow="visible"/>
			</clipPath>
			<path clip-path="url(#SVGID_4_)" fill="#EA4335" d="M-2.326,9.883L17.441,25l8.14-7.093l27.907-4.535V-2.908H-2.326V9.883
				L-2.326,9.883z"/>
		</g>
	</g>
	<g>
		<g>
			<defs>
				<path id="SVGID_5_" d="M49.418,20.349H25.581v9.883h13.721c-1.277,6.277-6.628,9.883-13.721,9.883
					c-8.372,0-15.116-6.744-15.116-15.116c0-8.372,6.744-15.116,15.116-15.116c3.604,0,6.86,1.279,9.419,3.372l7.441-7.441
					c-4.534-3.953-10.35-6.396-16.86-6.396C11.395-0.582,0,10.814,0,25c0,14.188,11.395,25.583,25.581,25.583
					C38.372,50.582,50,41.279,50,25C50,23.489,49.768,21.861,49.418,20.349z"/>
			</defs>
			<clipPath id="SVGID_6_">
				<use xlink:href="#SVGID_5_"  overflow="visible"/>
			</clipPath>
			<path clip-path="url(#SVGID_6_)" fill="#34A853" d="M-2.326,40.115l34.883-26.744l9.188,1.163L53.488-2.908v55.814H-2.326V40.115
				z"/>
		</g>
	</g>
	<g>
		<g>
			<defs>
				<path id="SVGID_7_" d="M49.418,20.349H25.581v9.883h13.721c-1.277,6.277-6.628,9.883-13.721,9.883
					c-8.372,0-15.116-6.744-15.116-15.116c0-8.372,6.744-15.116,15.116-15.116c3.604,0,6.86,1.279,9.419,3.372l7.441-7.441
					c-4.534-3.953-10.35-6.396-16.86-6.396C11.395-0.582,0,10.814,0,25c0,14.188,11.395,25.583,25.581,25.583
					C38.372,50.582,50,41.279,50,25C50,23.489,49.768,21.861,49.418,20.349z"/>
			</defs>
			<clipPath id="SVGID_8_">
				<use xlink:href="#SVGID_7_"  overflow="visible"/>
			</clipPath>
			<path clip-path="url(#SVGID_8_)" fill="#4285F4" d="M53.488,52.906L17.441,25l-4.651-3.488L53.488,9.883V52.906z"/>
		</g>
	</g>
</g>
</svg>
