<?xml version="1.0" encoding="utf-8"?>
<!-- Generator: Adobe Illustrator 16.0.3, SVG Export Plug-In . SVG Version: 6.00 Build 0)  -->
<!DOCTYPE svg PUBLIC "-//W3C//DTD SVG 1.1//EN" "http://www.w3.org/Graphics/SVG/1.1/DTD/svg11.dtd">
<svg version="1.1" id="Layer_1" xmlns="http://www.w3.org/2000/svg" xmlns:xlink="http://www.w3.org/1999/xlink" x="0px" y="0px"
	 width="400px" height="278px" viewBox="0 0 400 278" enable-background="new 0 0 400 278" xml:space="preserve">
<g>
	<g>
		<path fill="#FFFFFF" stroke="#318EDE" stroke-width="5" stroke-miterlimit="10" d="M53.765,137.241
			c-0.988-8.11,4.023-12.681,4.023-12.681s-9.756-9.004,0.229-26.23c8.185-14.119,18.438-16.063,18.438-16.063
			s-1.514-6.041,3.501-9.895c5.386-4.142,10.691-3.441,10.691-3.441s1.308-4.948,5.23-6.055c5.283-1.486,8.73,0.857,8.73,0.857
			s4.978-4.768,11.408-4.309c6.427,0.457,8.962,5.078,8.962,5.078s4.068-4.438,10.325-3.701c6.622,0.783,10.126,5.449,10.126,5.449
			s4.845-2.639,12.597,1.125c7.754,3.764,10.126,9.637,10.126,9.637s8.01-0.627,13.211,4.559c5.199,5.186,5.062,10.963,5.062,10.963
			s6.843-0.408,13.153,7.164c5.567,6.688,4.313,12.223,4.313,12.223s4.771,2.233,6.357,5.793c3.044,6.815-0.895,8.726-0.895,8.726
			s5.33,5.771,5.479,15.008c0.165,10.313-4.962,16.615-8.669,18.41c-5.215,2.522-8.779-0.005-8.779-0.005s-0.076,11.67-16.503,7.689
			c-16.429-3.981-23.54-7.97-23.54-7.97s1.935,9.722-6.703,12.715c-8.637,2.987-17.994-0.754-17.994-0.754s-7.198-2.166-13.389-0.38
			c-6.189,1.788-23.617,21.796-23.617,21.796l-6.887-3.343l4.19-16.855c0,0-11.131,6.303-20.132-0.191
			c-10.51-7.586-4.347-23.93-4.347-23.93S55.108,148.277,53.765,137.241z"/>
	</g>
	<g>
		<path fill="#318EDE" d="M274.698,130.857c0,0,5.739,19.959-8.97,28.725c-12.597,7.504-26.184-0.521-26.184-0.521l3.105,20.504
			l-9.414,3.778c0,0-19.866-24.807-27.659-27.194c-7.796-2.388-17.448-0.041-17.448-0.041s-12.678,4.167-23.485,0.235
			c-10.808-3.937-6.944-15.599-6.944-15.599s-9.793,4.547-31.69,8.74c-21.894,4.192-20.375-9.899-20.375-9.899
			s-4.98,2.92-11.407-0.324c-4.567-2.303-10.353-10.102-8.708-22.547c1.475-11.146,9.204-17.912,9.204-17.912
			s-4.853-2.455,0.046-10.567c2.558-4.237,9.067-6.755,9.067-6.755s-0.863-6.729,7.3-14.594c9.25-8.906,18.083-8.156,18.083-8.156
			s0.624-6.981,8.098-13.046c7.479-6.064,17.798-5.01,17.798-5.01s3.896-7,14.493-11.254c10.593-4.252,16.522-0.886,16.522-0.886
			s5.201-5.501,13.913-6.2c8.231-0.657,12.901,4.853,12.901,4.853s3.936-5.484,12.349-5.795c8.418-0.313,14.224,5.628,14.224,5.628
			s4.805-2.702,11.461-0.71c4.942,1.483,5.955,7.507,5.955,7.507s6.99-0.648,13.414,4.553c5.982,4.838,3.176,12.076,3.176,12.076
			s13.053,2.728,21.726,20.078c10.584,21.17-3.341,31.673-3.341,31.673s5.878,5.706,3.469,15.459
			C292.1,130.926,274.698,130.857,274.698,130.857z"/>
	</g>
	<text transform="matrix(-1 0 0 -1 230.5723 43.1426)" fill="#FFFFFF" font-family="'HelveticaNeue-Medium'" font-size="120">?</text>
</g>
<text transform="matrix(1 0 0 1 23.7627 250.0117)" fill="#29333B" font-family="'Verdana'" font-size="61.6462">Aphasia</text>
<text transform="matrix(1 0 0 1 266.4043 250.0117)" fill="#29333B" font-family="'Verdana'" font-size="48">.help</text>
</svg>
